<?xml version="1.0" encoding="utf-8" standalone="no"?>
<!DOCTYPE svg PUBLIC "-//W3C//DTD SVG 1.1//EN"
  "http://www.w3.org/Graphics/SVG/1.1/DTD/svg11.dtd">
<svg xmlns:xlink="http://www.w3.org/1999/xlink" width="640.346367pt" height="337.435156pt" viewBox="0 0 640.346367 337.435156" xmlns="http://www.w3.org/2000/svg" version="1.1">
 <metadata>
  <rdf:RDF xmlns:dc="http://purl.org/dc/elements/1.1/" xmlns:cc="http://creativecommons.org/ns#" xmlns:rdf="http://www.w3.org/1999/02/22-rdf-syntax-ns#">
   <cc:Work>
    <dc:type rdf:resource="http://purl.org/dc/dcmitype/StillImage"/>
    <dc:date>2026-08-15T11:24:53.035637</dc:date>
    <dc:format>image/svg+xml</dc:format>
    <dc:creator>
     <cc:Agent>
      <dc:title>Matplotlib v3.11.1, https://matplotlib.org/</dc:title>
     </cc:Agent>
    </dc:creator>
   </cc:Work>
  </rdf:RDF>
 </metadata>
 <defs>
  <style type="text/css">*{stroke-linejoin: round; stroke-linecap: butt}</style>
 </defs>
 <g id="figure_1">
  <g id="patch_1">
   <path d="M 0 337.435156
L 640.346367 337.435156
L 640.346367 0
L 0 0
z
" style="fill: #ffffff"/>
  </g>
  <g id="axes_1">
   <g id="patch_2">
    <path d="M 35.206641 273.13818
L 633.146367 273.13818
L 633.146367 21.936328
L 35.206641 21.936328
z
" style="fill: #ffffff"/>
   </g>
   <g id="matplotlib.axis_1">
    <g id="xtick_1">
     <g id="line2d_1">
      <path d="M 99.874103 273.13818
L 99.874103 21.936328
" clip-path="url(#p262bbe119d)" style="fill: none; stroke: #cccccc; stroke-width: 0.8; stroke-linecap: round"/>
     </g>
     <g id="line2d_2"/>
     <g id="text_1">
      <!-- B26-FP -->
      <g style="fill: #262626" transform="translate(86.488918 299.893081) rotate(-30) scale(0.1 -0.1)">
       <defs>
        <path id="LiberationSans-25" d="M 3931 1241
Q 3931 653 3503 326
Q 3075 0 2313 0
L 525 0
L 525 4403
L 2125 4403
Q 3675 4403 3675 3334
Q 3675 2944 3456 2678
Q 3238 2413 2838 2322
Q 3363 2259 3647 1970
Q 3931 1681 3931 1241
z
M 3075 3263
Q 3075 3619 2831 3772
Q 2588 3925 2125 3925
L 1122 3925
L 1122 2531
L 2125 2531
Q 2603 2531 2839 2711
Q 3075 2891 3075 3263
z
M 3328 1288
Q 3328 2066 2234 2066
L 1122 2066
L 1122 478
L 2281 478
Q 2828 478 3078 681
Q 3328 884 3328 1288
z
" transform="scale(0.015625)"/>
        <path id="LiberationSans-15" d="M 322 0
L 322 397
Q 481 763 711 1042
Q 941 1322 1194 1548
Q 1447 1775 1695 1969
Q 1944 2163 2144 2356
Q 2344 2550 2467 2762
Q 2591 2975 2591 3244
Q 2591 3606 2378 3806
Q 2166 4006 1788 4006
Q 1428 4006 1195 3811
Q 963 3616 922 3263
L 347 3316
Q 409 3844 795 4156
Q 1181 4469 1788 4469
Q 2453 4469 2811 4155
Q 3169 3841 3169 3263
Q 3169 3006 3051 2753
Q 2934 2500 2703 2247
Q 2472 1994 1819 1463
Q 1459 1169 1246 933
Q 1034 697 941 478
L 3238 478
L 3238 0
L 322 0
z
" transform="scale(0.015625)"/>
        <path id="LiberationSans-19" d="M 3278 1441
Q 3278 744 2900 340
Q 2522 -63 1856 -63
Q 1113 -63 719 490
Q 325 1044 325 2100
Q 325 3244 734 3856
Q 1144 4469 1900 4469
Q 2897 4469 3156 3572
L 2619 3475
Q 2453 4013 1894 4013
Q 1413 4013 1148 3564
Q 884 3116 884 2266
Q 1038 2550 1316 2698
Q 1594 2847 1953 2847
Q 2563 2847 2920 2465
Q 3278 2084 3278 1441
z
M 2706 1416
Q 2706 1894 2472 2153
Q 2238 2413 1819 2413
Q 1425 2413 1183 2183
Q 941 1953 941 1550
Q 941 1041 1192 716
Q 1444 391 1838 391
Q 2244 391 2475 664
Q 2706 938 2706 1416
z
" transform="scale(0.015625)"/>
        <path id="LiberationSans-10" d="M 284 1450
L 284 1950
L 1847 1950
L 1847 1450
L 284 1450
z
" transform="scale(0.015625)"/>
        <path id="LiberationSans-29" d="M 1122 3916
L 1122 2278
L 3578 2278
L 3578 1784
L 1122 1784
L 1122 0
L 525 0
L 525 4403
L 3653 4403
L 3653 3916
L 1122 3916
z
" transform="scale(0.015625)"/>
        <path id="LiberationSans-33" d="M 3931 3078
Q 3931 2453 3523 2084
Q 3116 1716 2416 1716
L 1122 1716
L 1122 0
L 525 0
L 525 4403
L 2378 4403
Q 3119 4403 3525 4056
Q 3931 3709 3931 3078
z
M 3331 3072
Q 3331 3925 2306 3925
L 1122 3925
L 1122 2188
L 2331 2188
Q 3331 2188 3331 3072
z
" transform="scale(0.015625)"/>
       </defs>
       <use xlink:href="#LiberationSans-25"/>
       <use xlink:href="#LiberationSans-15" transform="translate(66.703125 0)"/>
       <use xlink:href="#LiberationSans-19" transform="translate(122.3125 0)"/>
       <use xlink:href="#LiberationSans-10" transform="translate(177.921875 0)"/>
       <use xlink:href="#LiberationSans-29" transform="translate(211.21875 0)"/>
       <use xlink:href="#LiberationSans-33" transform="translate(272.296875 0)"/>
      </g>
     </g>
    </g>
    <g id="xtick_2">
     <g id="line2d_3">
      <path d="M 193.595063 273.13818
L 193.595063 21.936328
" clip-path="url(#p262bbe119d)" style="fill: none; stroke: #cccccc; stroke-width: 0.8; stroke-linecap: round"/>
     </g>
     <g id="line2d_4"/>
     <g id="text_2">
      <!-- H-SCR -->
      <g style="fill: #262626" transform="translate(181.177391 298.775894) rotate(-30) scale(0.1 -0.1)">
       <defs>
        <path id="LiberationSans-2b" d="M 3503 0
L 3503 2041
L 1122 2041
L 1122 0
L 525 0
L 525 4403
L 1122 4403
L 1122 2541
L 3503 2541
L 3503 4403
L 4100 4403
L 4100 0
L 3503 0
z
" transform="scale(0.015625)"/>
        <path id="LiberationSans-36" d="M 3975 1216
Q 3975 606 3498 271
Q 3022 -63 2156 -63
Q 547 -63 291 1056
L 869 1172
Q 969 775 1294 589
Q 1619 403 2178 403
Q 2756 403 3070 601
Q 3384 800 3384 1184
Q 3384 1400 3286 1534
Q 3188 1669 3009 1756
Q 2831 1844 2584 1903
Q 2338 1963 2038 2031
Q 1516 2147 1245 2262
Q 975 2378 819 2520
Q 663 2663 580 2853
Q 497 3044 497 3291
Q 497 3856 930 4162
Q 1363 4469 2169 4469
Q 2919 4469 3316 4239
Q 3713 4009 3872 3456
L 3284 3353
Q 3188 3703 2916 3861
Q 2644 4019 2163 4019
Q 1634 4019 1356 3844
Q 1078 3669 1078 3322
Q 1078 3119 1186 2986
Q 1294 2853 1497 2761
Q 1700 2669 2306 2534
Q 2509 2488 2711 2439
Q 2913 2391 3097 2323
Q 3281 2256 3442 2165
Q 3603 2075 3722 1944
Q 3841 1813 3908 1634
Q 3975 1456 3975 1216
z
" transform="scale(0.015625)"/>
        <path id="LiberationSans-26" d="M 2475 3981
Q 1744 3981 1337 3511
Q 931 3041 931 2222
Q 931 1413 1354 920
Q 1778 428 2500 428
Q 3425 428 3891 1344
L 4378 1100
Q 4106 531 3614 234
Q 3122 -63 2472 -63
Q 1806 -63 1320 214
Q 834 491 579 1005
Q 325 1519 325 2222
Q 325 3275 894 3872
Q 1463 4469 2469 4469
Q 3172 4469 3644 4194
Q 4116 3919 4338 3378
L 3772 3191
Q 3619 3575 3280 3778
Q 2941 3981 2475 3981
z
" transform="scale(0.015625)"/>
        <path id="LiberationSans-35" d="M 3638 0
L 2494 1828
L 1122 1828
L 1122 0
L 525 0
L 525 4403
L 2597 4403
Q 3341 4403 3745 4070
Q 4150 3738 4150 3144
Q 4150 2653 3864 2318
Q 3578 1984 3075 1897
L 4325 0
L 3638 0
z
M 3550 3138
Q 3550 3522 3289 3723
Q 3028 3925 2538 3925
L 1122 3925
L 1122 2300
L 2563 2300
Q 3034 2300 3292 2520
Q 3550 2741 3550 3138
z
" transform="scale(0.015625)"/>
       </defs>
       <use xlink:href="#LiberationSans-2b"/>
       <use xlink:href="#LiberationSans-10" transform="translate(72.21875 0)"/>
       <use xlink:href="#LiberationSans-36" transform="translate(105.515625 0)"/>
       <use xlink:href="#LiberationSans-26" transform="translate(172.21875 0)"/>
       <use xlink:href="#LiberationSans-35" transform="translate(244.4375 0)"/>
      </g>
     </g>
    </g>
    <g id="xtick_3">
     <g id="line2d_5">
      <path d="M 287.316024 273.13818
L 287.316024 21.936328
" clip-path="url(#p262bbe119d)" style="fill: none; stroke: #cccccc; stroke-width: 0.8; stroke-linecap: round"/>
     </g>
     <g id="line2d_6"/>
     <g id="text_3">
      <!-- W-DIR -->
      <g style="fill: #262626" transform="translate(275.702131 297.847769) rotate(-30) scale(0.1 -0.1)">
       <defs>
        <path id="LiberationSans-3a" d="M 4722 0
L 4009 0
L 3247 2797
Q 3172 3059 3028 3738
Q 2947 3375 2890 3131
Q 2834 2888 2038 0
L 1325 0
L 28 4403
L 650 4403
L 1441 1606
Q 1581 1081 1700 525
Q 1775 869 1873 1275
Q 1972 1681 2741 4403
L 3313 4403
L 4078 1663
Q 4253 991 4353 525
L 4381 634
Q 4466 994 4519 1220
Q 4572 1447 5397 4403
L 6019 4403
L 4722 0
z
" transform="scale(0.015625)"/>
        <path id="LiberationSans-27" d="M 4316 2247
Q 4316 1566 4050 1055
Q 3784 544 3296 272
Q 2809 0 2172 0
L 525 0
L 525 4403
L 1981 4403
Q 3100 4403 3708 3842
Q 4316 3281 4316 2247
z
M 3716 2247
Q 3716 3066 3267 3495
Q 2819 3925 1969 3925
L 1122 3925
L 1122 478
L 2103 478
Q 2588 478 2955 690
Q 3322 903 3519 1303
Q 3716 1703 3716 2247
z
" transform="scale(0.015625)"/>
        <path id="LiberationSans-2c" d="M 591 0
L 591 4403
L 1188 4403
L 1188 0
L 591 0
z
" transform="scale(0.015625)"/>
       </defs>
       <use xlink:href="#LiberationSans-3a"/>
       <use xlink:href="#LiberationSans-10" transform="translate(92.578125 0)"/>
       <use xlink:href="#LiberationSans-27" transform="translate(125.875 0)"/>
       <use xlink:href="#LiberationSans-2c" transform="translate(198.09375 0)"/>
       <use xlink:href="#LiberationSans-35" transform="translate(225.875 0)"/>
      </g>
     </g>
    </g>
    <g id="xtick_4">
     <g id="line2d_7">
      <path d="M 381.036984 273.13818
L 381.036984 21.936328
" clip-path="url(#p262bbe119d)" style="fill: none; stroke: #cccccc; stroke-width: 0.8; stroke-linecap: round"/>
     </g>
     <g id="line2d_8"/>
     <g id="text_4">
      <!-- V1-BR / A0 -->
      <g style="fill: #262626" transform="translate(360.911009 307.676675) rotate(-30) scale(0.1 -0.1)">
       <defs>
        <path id="LiberationSans-39" d="M 2444 0
L 1825 0
L 28 4403
L 656 4403
L 1875 1303
L 2138 525
L 2400 1303
L 3613 4403
L 4241 4403
L 2444 0
z
" transform="scale(0.015625)"/>
        <path id="LiberationSans-14" d="M 488 0
L 488 478
L 1609 478
L 1609 3866
L 616 3156
L 616 3688
L 1656 4403
L 2175 4403
L 2175 478
L 3247 478
L 3247 0
L 488 0
z
" transform="scale(0.015625)"/>
        <path id="LiberationSans-3" transform="scale(0.015625)"/>
        <path id="LiberationSans-12" d="M 0 -63
L 1284 4638
L 1778 4638
L 506 -63
L 0 -63
z
" transform="scale(0.015625)"/>
        <path id="LiberationSans-24" d="M 3647 0
L 3144 1288
L 1138 1288
L 631 0
L 13 0
L 1809 4403
L 2488 4403
L 4256 0
L 3647 0
z
M 2141 3953
L 2113 3866
Q 2034 3606 1881 3200
L 1319 1753
L 2966 1753
L 2400 3206
Q 2313 3422 2225 3694
L 2141 3953
z
" transform="scale(0.015625)"/>
        <path id="LiberationSans-13" d="M 3309 2203
Q 3309 1100 2920 518
Q 2531 -63 1772 -63
Q 1013 -63 631 515
Q 250 1094 250 2203
Q 250 3338 620 3903
Q 991 4469 1791 4469
Q 2569 4469 2939 3897
Q 3309 3325 3309 2203
z
M 2738 2203
Q 2738 3156 2517 3584
Q 2297 4013 1791 4013
Q 1272 4013 1045 3591
Q 819 3169 819 2203
Q 819 1266 1048 831
Q 1278 397 1778 397
Q 2275 397 2506 840
Q 2738 1284 2738 2203
z
" transform="scale(0.015625)"/>
       </defs>
       <use xlink:href="#LiberationSans-39"/>
       <use xlink:href="#LiberationSans-14" transform="translate(66.703125 0)"/>
       <use xlink:href="#LiberationSans-10" transform="translate(122.3125 0)"/>
       <use xlink:href="#LiberationSans-25" transform="translate(155.609375 0)"/>
       <use xlink:href="#LiberationSans-35" transform="translate(222.3125 0)"/>
       <use xlink:href="#LiberationSans-3" transform="translate(294.53125 0)"/>
       <use xlink:href="#LiberationSans-12" transform="translate(322.3125 0)"/>
       <use xlink:href="#LiberationSans-3" transform="translate(350.09375 0)"/>
       <use xlink:href="#LiberationSans-24" transform="translate(372.359375 0)"/>
       <use xlink:href="#LiberationSans-13" transform="translate(439.0625 0)"/>
      </g>
     </g>
    </g>
    <g id="xtick_5">
     <g id="line2d_9">
      <path d="M 474.757944 273.13818
L 474.757944 21.936328
" clip-path="url(#p262bbe119d)" style="fill: none; stroke: #cccccc; stroke-width: 0.8; stroke-linecap: round"/>
     </g>
     <g id="line2d_10"/>
     <g id="text_5">
      <!-- N1-SHIFT / A-FINAL -->
      <g style="fill: #262626" transform="translate(436.67412 328.412613) rotate(-30) scale(0.1 -0.1)">
       <defs>
        <path id="LiberationSans-31" d="M 3381 0
L 1025 3750
L 1041 3447
L 1056 2925
L 1056 0
L 525 0
L 525 4403
L 1219 4403
L 3600 628
Q 3563 1241 3563 1516
L 3563 4403
L 4100 4403
L 4100 0
L 3381 0
z
" transform="scale(0.015625)"/>
        <path id="LiberationSans-37" d="M 2250 3916
L 2250 0
L 1656 0
L 1656 3916
L 144 3916
L 144 4403
L 3763 4403
L 3763 3916
L 2250 3916
z
" transform="scale(0.015625)"/>
        <path id="LiberationSans-2f" d="M 525 0
L 525 4403
L 1122 4403
L 1122 488
L 3347 488
L 3347 0
L 525 0
z
" transform="scale(0.015625)"/>
       </defs>
       <use xlink:href="#LiberationSans-31"/>
       <use xlink:href="#LiberationSans-14" transform="translate(72.21875 0)"/>
       <use xlink:href="#LiberationSans-10" transform="translate(127.828125 0)"/>
       <use xlink:href="#LiberationSans-36" transform="translate(161.125 0)"/>
       <use xlink:href="#LiberationSans-2b" transform="translate(227.828125 0)"/>
       <use xlink:href="#LiberationSans-2c" transform="translate(300.046875 0)"/>
       <use xlink:href="#LiberationSans-29" transform="translate(327.828125 0)"/>
       <use xlink:href="#LiberationSans-37" transform="translate(388.90625 0)"/>
       <use xlink:href="#LiberationSans-3" transform="translate(448.171875 0)"/>
       <use xlink:href="#LiberationSans-12" transform="translate(475.953125 0)"/>
       <use xlink:href="#LiberationSans-3" transform="translate(503.734375 0)"/>
       <use xlink:href="#LiberationSans-24" transform="translate(526 0)"/>
       <use xlink:href="#LiberationSans-10" transform="translate(592.703125 0)"/>
       <use xlink:href="#LiberationSans-29" transform="translate(626 0)"/>
       <use xlink:href="#LiberationSans-2c" transform="translate(687.078125 0)"/>
       <use xlink:href="#LiberationSans-31" transform="translate(714.859375 0)"/>
       <use xlink:href="#LiberationSans-24" transform="translate(787.078125 0)"/>
       <use xlink:href="#LiberationSans-2f" transform="translate(853.78125 0)"/>
      </g>
     </g>
    </g>
    <g id="xtick_6">
     <g id="line2d_11">
      <path d="M 568.478905 273.13818
L 568.478905 21.936328
" clip-path="url(#p262bbe119d)" style="fill: none; stroke: #cccccc; stroke-width: 0.8; stroke-linecap: round"/>
     </g>
     <g id="line2d_12"/>
     <g id="text_6">
      <!-- D1-SHARED-10 -->
      <g style="fill: #262626" transform="translate(538.491742 319.063394) rotate(-30) scale(0.1 -0.1)">
       <defs>
        <path id="LiberationSans-28" d="M 525 0
L 525 4403
L 3866 4403
L 3866 3916
L 1122 3916
L 1122 2503
L 3678 2503
L 3678 2022
L 1122 2022
L 1122 488
L 3994 488
L 3994 0
L 525 0
z
" transform="scale(0.015625)"/>
       </defs>
       <use xlink:href="#LiberationSans-27"/>
       <use xlink:href="#LiberationSans-14" transform="translate(72.21875 0)"/>
       <use xlink:href="#LiberationSans-10" transform="translate(127.828125 0)"/>
       <use xlink:href="#LiberationSans-36" transform="translate(161.125 0)"/>
       <use xlink:href="#LiberationSans-2b" transform="translate(227.828125 0)"/>
       <use xlink:href="#LiberationSans-24" transform="translate(300.046875 0)"/>
       <use xlink:href="#LiberationSans-35" transform="translate(366.75 0)"/>
       <use xlink:href="#LiberationSans-28" transform="translate(438.96875 0)"/>
       <use xlink:href="#LiberationSans-27" transform="translate(505.671875 0)"/>
       <use xlink:href="#LiberationSans-10" transform="translate(577.890625 0)"/>
       <use xlink:href="#LiberationSans-14" transform="translate(611.1875 0)"/>
       <use xlink:href="#LiberationSans-13" transform="translate(666.796875 0)"/>
      </g>
     </g>
    </g>
   </g>
   <g id="matplotlib.axis_2">
    <g id="ytick_1">
     <g id="line2d_13">
      <path d="M 35.206641 273.13818
L 633.146367 273.13818
" clip-path="url(#p262bbe119d)" style="fill: none; stroke: #cccccc; stroke-width: 0.8; stroke-linecap: round"/>
     </g>
     <g id="line2d_14"/>
     <g id="text_7">
      <!-- 0 -->
      <g style="fill: #262626" transform="translate(26.145703 276.778316) scale(0.1 -0.1)">
       <use xlink:href="#LiberationSans-13"/>
      </g>
     </g>
    </g>
    <g id="ytick_2">
     <g id="line2d_15">
      <path d="M 35.206641 238.090069
L 633.146367 238.090069
" clip-path="url(#p262bbe119d)" style="fill: none; stroke: #cccccc; stroke-width: 0.8; stroke-linecap: round"/>
     </g>
     <g id="line2d_16"/>
     <g id="text_8">
      <!-- 10 -->
      <g style="fill: #262626" transform="translate(20.584766 241.730206) scale(0.1 -0.1)">
       <use xlink:href="#LiberationSans-14"/>
       <use xlink:href="#LiberationSans-13" transform="translate(55.609375 0)"/>
      </g>
     </g>
    </g>
    <g id="ytick_3">
     <g id="line2d_17">
      <path d="M 35.206641 203.041958
L 633.146367 203.041958
" clip-path="url(#p262bbe119d)" style="fill: none; stroke: #cccccc; stroke-width: 0.8; stroke-linecap: round"/>
     </g>
     <g id="line2d_18"/>
     <g id="text_9">
      <!-- 20 -->
      <g style="fill: #262626" transform="translate(20.584766 206.682095) scale(0.1 -0.1)">
       <use xlink:href="#LiberationSans-15"/>
       <use xlink:href="#LiberationSans-13" transform="translate(55.609375 0)"/>
      </g>
     </g>
    </g>
    <g id="ytick_4">
     <g id="line2d_19">
      <path d="M 35.206641 167.993847
L 633.146367 167.993847
" clip-path="url(#p262bbe119d)" style="fill: none; stroke: #cccccc; stroke-width: 0.8; stroke-linecap: round"/>
     </g>
     <g id="line2d_20"/>
     <g id="text_10">
      <!-- 30 -->
      <g style="fill: #262626" transform="translate(20.584766 171.633984) scale(0.1 -0.1)">
       <defs>
        <path id="LiberationSans-16" d="M 3278 1216
Q 3278 606 2890 271
Q 2503 -63 1784 -63
Q 1116 -63 717 239
Q 319 541 244 1131
L 825 1184
Q 938 403 1784 403
Q 2209 403 2451 612
Q 2694 822 2694 1234
Q 2694 1594 2417 1795
Q 2141 1997 1619 1997
L 1300 1997
L 1300 2484
L 1606 2484
Q 2069 2484 2323 2686
Q 2578 2888 2578 3244
Q 2578 3597 2370 3801
Q 2163 4006 1753 4006
Q 1381 4006 1151 3815
Q 922 3625 884 3278
L 319 3322
Q 381 3863 767 4166
Q 1153 4469 1759 4469
Q 2422 4469 2789 4161
Q 3156 3853 3156 3303
Q 3156 2881 2920 2617
Q 2684 2353 2234 2259
L 2234 2247
Q 2728 2194 3003 1916
Q 3278 1638 3278 1216
z
" transform="scale(0.015625)"/>
       </defs>
       <use xlink:href="#LiberationSans-16"/>
       <use xlink:href="#LiberationSans-13" transform="translate(55.609375 0)"/>
      </g>
     </g>
    </g>
    <g id="ytick_5">
     <g id="line2d_21">
      <path d="M 35.206641 132.945737
L 633.146367 132.945737
" clip-path="url(#p262bbe119d)" style="fill: none; stroke: #cccccc; stroke-width: 0.8; stroke-linecap: round"/>
     </g>
     <g id="line2d_22"/>
     <g id="text_11">
      <!-- 40 -->
      <g style="fill: #262626" transform="translate(20.584766 136.585873) scale(0.1 -0.1)">
       <defs>
        <path id="LiberationSans-17" d="M 2753 997
L 2753 0
L 2222 0
L 2222 997
L 147 997
L 147 1434
L 2163 4403
L 2753 4403
L 2753 1441
L 3372 1441
L 3372 997
L 2753 997
z
M 2222 3769
Q 2216 3750 2134 3603
Q 2053 3456 2013 3397
L 884 1734
L 716 1503
L 666 1441
L 2222 1441
L 2222 3769
z
" transform="scale(0.015625)"/>
       </defs>
       <use xlink:href="#LiberationSans-17"/>
       <use xlink:href="#LiberationSans-13" transform="translate(55.609375 0)"/>
      </g>
     </g>
    </g>
    <g id="ytick_6">
     <g id="line2d_23">
      <path d="M 35.206641 97.897626
L 633.146367 97.897626
" clip-path="url(#p262bbe119d)" style="fill: none; stroke: #cccccc; stroke-width: 0.8; stroke-linecap: round"/>
     </g>
     <g id="line2d_24"/>
     <g id="text_12">
      <!-- 50 -->
      <g style="fill: #262626" transform="translate(20.584766 101.537763) scale(0.1 -0.1)">
       <defs>
        <path id="LiberationSans-18" d="M 3291 1434
Q 3291 738 2877 337
Q 2463 -63 1728 -63
Q 1113 -63 734 206
Q 356 475 256 984
L 825 1050
Q 1003 397 1741 397
Q 2194 397 2450 670
Q 2706 944 2706 1422
Q 2706 1838 2448 2094
Q 2191 2350 1753 2350
Q 1525 2350 1328 2278
Q 1131 2206 934 2034
L 384 2034
L 531 4403
L 3034 4403
L 3034 3925
L 1044 3925
L 959 2528
Q 1325 2809 1869 2809
Q 2519 2809 2905 2428
Q 3291 2047 3291 1434
z
" transform="scale(0.015625)"/>
       </defs>
       <use xlink:href="#LiberationSans-18"/>
       <use xlink:href="#LiberationSans-13" transform="translate(55.609375 0)"/>
      </g>
     </g>
    </g>
    <g id="ytick_7">
     <g id="line2d_25">
      <path d="M 35.206641 62.849515
L 633.146367 62.849515
" clip-path="url(#p262bbe119d)" style="fill: none; stroke: #cccccc; stroke-width: 0.8; stroke-linecap: round"/>
     </g>
     <g id="line2d_26"/>
     <g id="text_13">
      <!-- 60 -->
      <g style="fill: #262626" transform="translate(20.584766 66.489652) scale(0.1 -0.1)">
       <use xlink:href="#LiberationSans-19"/>
       <use xlink:href="#LiberationSans-13" transform="translate(55.609375 0)"/>
      </g>
     </g>
    </g>
    <g id="ytick_8">
     <g id="line2d_27">
      <path d="M 35.206641 27.801405
L 633.146367 27.801405
" clip-path="url(#p262bbe119d)" style="fill: none; stroke: #cccccc; stroke-width: 0.8; stroke-linecap: round"/>
     </g>
     <g id="line2d_28"/>
     <g id="text_14">
      <!-- 70 -->
      <g style="fill: #262626" transform="translate(20.584766 31.441541) scale(0.1 -0.1)">
       <defs>
        <path id="LiberationSans-1a" d="M 3238 3947
Q 2563 2916 2284 2331
Q 2006 1747 1867 1178
Q 1728 609 1728 0
L 1141 0
Q 1141 844 1498 1776
Q 1856 2709 2694 3925
L 328 3925
L 328 4403
L 3238 4403
L 3238 3947
z
" transform="scale(0.015625)"/>
       </defs>
       <use xlink:href="#LiberationSans-1a"/>
       <use xlink:href="#LiberationSans-13" transform="translate(55.609375 0)"/>
      </g>
     </g>
    </g>
    <g id="text_15">
     <!-- Checkpoint file size (MiB) -->
     <g style="fill: #262626" transform="translate(14.480273 203.94116) rotate(-90) scale(0.1 -0.1)">
      <defs>
       <path id="LiberationSans-4b" d="M 991 2803
Q 1172 3134 1426 3289
Q 1681 3444 2072 3444
Q 2622 3444 2883 3170
Q 3144 2897 3144 2253
L 3144 0
L 2578 0
L 2578 2144
Q 2578 2500 2512 2673
Q 2447 2847 2297 2928
Q 2147 3009 1881 3009
Q 1484 3009 1245 2734
Q 1006 2459 1006 1994
L 1006 0
L 444 0
L 444 4638
L 1006 4638
L 1006 3431
Q 1006 3241 995 3037
Q 984 2834 981 2803
L 991 2803
z
" transform="scale(0.015625)"/>
       <path id="LiberationSans-48" d="M 863 1572
Q 863 991 1103 675
Q 1344 359 1806 359
Q 2172 359 2392 506
Q 2613 653 2691 878
L 3184 738
Q 2881 -63 1806 -63
Q 1056 -63 664 384
Q 272 831 272 1713
Q 272 2550 664 2997
Q 1056 3444 1784 3444
Q 3275 3444 3275 1647
L 3275 1572
L 863 1572
z
M 2694 2003
Q 2647 2538 2422 2783
Q 2197 3028 1775 3028
Q 1366 3028 1127 2754
Q 888 2481 869 2003
L 2694 2003
z
" transform="scale(0.015625)"/>
       <path id="LiberationSans-46" d="M 859 1706
Q 859 1031 1071 706
Q 1284 381 1713 381
Q 2013 381 2214 543
Q 2416 706 2463 1044
L 3031 1006
Q 2966 519 2616 228
Q 2266 -63 1728 -63
Q 1019 -63 645 385
Q 272 834 272 1694
Q 272 2547 647 2995
Q 1022 3444 1722 3444
Q 2241 3444 2583 3175
Q 2925 2906 3013 2434
L 2434 2391
Q 2391 2672 2212 2837
Q 2034 3003 1706 3003
Q 1259 3003 1059 2706
Q 859 2409 859 1706
z
" transform="scale(0.015625)"/>
       <path id="LiberationSans-4e" d="M 2550 0
L 1406 1544
L 994 1203
L 994 0
L 431 0
L 431 4638
L 994 4638
L 994 1741
L 2478 3381
L 3138 3381
L 1766 1928
L 3209 0
L 2550 0
z
" transform="scale(0.015625)"/>
       <path id="LiberationSans-53" d="M 3291 1706
Q 3291 -63 2047 -63
Q 1266 -63 997 525
L 981 525
Q 994 500 994 -6
L 994 -1328
L 431 -1328
L 431 2691
Q 431 3213 413 3381
L 956 3381
Q 959 3369 965 3292
Q 972 3216 980 3056
Q 988 2897 988 2838
L 1000 2838
Q 1150 3150 1397 3295
Q 1644 3441 2047 3441
Q 2672 3441 2981 3022
Q 3291 2603 3291 1706
z
M 2700 1694
Q 2700 2400 2509 2703
Q 2319 3006 1903 3006
Q 1569 3006 1380 2865
Q 1191 2725 1092 2426
Q 994 2128 994 1650
Q 994 984 1206 668
Q 1419 353 1897 353
Q 2316 353 2508 661
Q 2700 969 2700 1694
z
" transform="scale(0.015625)"/>
       <path id="LiberationSans-52" d="M 3291 1694
Q 3291 806 2900 371
Q 2509 -63 1766 -63
Q 1025 -63 647 389
Q 269 841 269 1694
Q 269 3444 1784 3444
Q 2559 3444 2925 3017
Q 3291 2591 3291 1694
z
M 2700 1694
Q 2700 2394 2492 2711
Q 2284 3028 1794 3028
Q 1300 3028 1079 2704
Q 859 2381 859 1694
Q 859 1025 1076 689
Q 1294 353 1759 353
Q 2266 353 2483 678
Q 2700 1003 2700 1694
z
" transform="scale(0.015625)"/>
       <path id="LiberationSans-4c" d="M 428 4100
L 428 4638
L 991 4638
L 991 4100
L 428 4100
z
M 428 0
L 428 3381
L 991 3381
L 991 0
L 428 0
z
" transform="scale(0.015625)"/>
       <path id="LiberationSans-51" d="M 2578 0
L 2578 2144
Q 2578 2478 2512 2662
Q 2447 2847 2303 2928
Q 2159 3009 1881 3009
Q 1475 3009 1240 2731
Q 1006 2453 1006 1959
L 1006 0
L 444 0
L 444 2659
Q 444 3250 425 3381
L 956 3381
Q 959 3366 962 3297
Q 966 3228 970 3139
Q 975 3050 981 2803
L 991 2803
Q 1184 3153 1439 3298
Q 1694 3444 2072 3444
Q 2628 3444 2886 3167
Q 3144 2891 3144 2253
L 3144 0
L 2578 0
z
" transform="scale(0.015625)"/>
       <path id="LiberationSans-57" d="M 1731 25
Q 1453 -50 1163 -50
Q 488 -50 488 716
L 488 2972
L 97 2972
L 97 3381
L 509 3381
L 675 4138
L 1050 4138
L 1050 3381
L 1675 3381
L 1675 2972
L 1050 2972
L 1050 838
Q 1050 594 1129 495
Q 1209 397 1406 397
Q 1519 397 1731 441
L 1731 25
z
" transform="scale(0.015625)"/>
       <path id="LiberationSans-49" d="M 1128 2972
L 1128 0
L 566 0
L 566 2972
L 91 2972
L 91 3381
L 566 3381
L 566 3763
Q 566 4225 769 4428
Q 972 4631 1391 4631
Q 1625 4631 1788 4594
L 1788 4166
Q 1647 4191 1538 4191
Q 1322 4191 1225 4081
Q 1128 3972 1128 3684
L 1128 3381
L 1788 3381
L 1788 2972
L 1128 2972
z
" transform="scale(0.015625)"/>
       <path id="LiberationSans-4f" d="M 431 0
L 431 4638
L 994 4638
L 994 0
L 431 0
z
" transform="scale(0.015625)"/>
       <path id="LiberationSans-56" d="M 2969 934
Q 2969 456 2608 196
Q 2247 -63 1597 -63
Q 966 -63 623 145
Q 281 353 178 794
L 675 891
Q 747 619 972 492
Q 1197 366 1597 366
Q 2025 366 2223 497
Q 2422 628 2422 891
Q 2422 1091 2284 1216
Q 2147 1341 1841 1422
L 1438 1528
Q 953 1653 748 1773
Q 544 1894 428 2066
Q 313 2238 313 2488
Q 313 2950 642 3192
Q 972 3434 1603 3434
Q 2163 3434 2492 3237
Q 2822 3041 2909 2606
L 2403 2544
Q 2356 2769 2151 2889
Q 1947 3009 1603 3009
Q 1222 3009 1040 2893
Q 859 2778 859 2544
Q 859 2400 934 2306
Q 1009 2213 1156 2147
Q 1303 2081 1775 1966
Q 2222 1853 2419 1758
Q 2616 1663 2730 1547
Q 2844 1431 2906 1279
Q 2969 1128 2969 934
z
" transform="scale(0.015625)"/>
       <path id="LiberationSans-5d" d="M 259 0
L 259 428
L 2150 2947
L 366 2947
L 366 3381
L 2816 3381
L 2816 2953
L 922 434
L 2881 434
L 2881 0
L 259 0
z
" transform="scale(0.015625)"/>
       <path id="LiberationSans-b" d="M 397 1663
Q 397 2566 680 3284
Q 963 4003 1550 4638
L 2094 4638
Q 1509 3988 1236 3256
Q 963 2525 963 1656
Q 963 791 1233 62
Q 1503 -666 2094 -1325
L 1550 -1325
Q 959 -688 678 32
Q 397 753 397 1650
L 397 1663
z
" transform="scale(0.015625)"/>
       <path id="LiberationSans-30" d="M 4269 0
L 4269 2938
Q 4269 3425 4297 3875
Q 4144 3316 4022 3000
L 2884 0
L 2466 0
L 1313 3000
L 1138 3531
L 1034 3875
L 1044 3528
L 1056 2938
L 1056 0
L 525 0
L 525 4403
L 1309 4403
L 2481 1350
Q 2544 1166 2601 955
Q 2659 744 2678 650
Q 2703 775 2783 1029
Q 2863 1284 2891 1350
L 4041 4403
L 4806 4403
L 4806 0
L 4269 0
z
" transform="scale(0.015625)"/>
       <path id="LiberationSans-c" d="M 1734 1650
Q 1734 747 1451 28
Q 1169 -691 581 -1325
L 38 -1325
Q 625 -669 897 57
Q 1169 784 1169 1656
Q 1169 2528 895 3256
Q 622 3984 38 4638
L 581 4638
Q 1172 4000 1453 3279
Q 1734 2559 1734 1663
L 1734 1650
z
" transform="scale(0.015625)"/>
      </defs>
      <use xlink:href="#LiberationSans-26"/>
      <use xlink:href="#LiberationSans-4b" transform="translate(72.21875 0)"/>
      <use xlink:href="#LiberationSans-48" transform="translate(127.828125 0)"/>
      <use xlink:href="#LiberationSans-46" transform="translate(183.4375 0)"/>
      <use xlink:href="#LiberationSans-4e" transform="translate(233.4375 0)"/>
      <use xlink:href="#LiberationSans-53" transform="translate(283.4375 0)"/>
      <use xlink:href="#LiberationSans-52" transform="translate(339.046875 0)"/>
      <use xlink:href="#LiberationSans-4c" transform="translate(394.65625 0)"/>
      <use xlink:href="#LiberationSans-51" transform="translate(416.875 0)"/>
      <use xlink:href="#LiberationSans-57" transform="translate(472.484375 0)"/>
      <use xlink:href="#LiberationSans-3" transform="translate(500.265625 0)"/>
      <use xlink:href="#LiberationSans-49" transform="translate(528.046875 0)"/>
      <use xlink:href="#LiberationSans-4c" transform="translate(555.828125 0)"/>
      <use xlink:href="#LiberationSans-4f" transform="translate(578.046875 0)"/>
      <use xlink:href="#LiberationSans-48" transform="translate(600.265625 0)"/>
      <use xlink:href="#LiberationSans-3" transform="translate(655.875 0)"/>
      <use xlink:href="#LiberationSans-56" transform="translate(683.65625 0)"/>
      <use xlink:href="#LiberationSans-4c" transform="translate(733.65625 0)"/>
      <use xlink:href="#LiberationSans-5d" transform="translate(755.875 0)"/>
      <use xlink:href="#LiberationSans-48" transform="translate(805.875 0)"/>
      <use xlink:href="#LiberationSans-3" transform="translate(861.484375 0)"/>
      <use xlink:href="#LiberationSans-b" transform="translate(889.265625 0)"/>
      <use xlink:href="#LiberationSans-30" transform="translate(922.5625 0)"/>
      <use xlink:href="#LiberationSans-4c" transform="translate(1005.859375 0)"/>
      <use xlink:href="#LiberationSans-25" transform="translate(1028.078125 0)"/>
      <use xlink:href="#LiberationSans-c" transform="translate(1094.78125 0)"/>
     </g>
    </g>
   </g>
   <g id="patch_3">
    <path d="M 62.385719 273.13818
L 137.362487 273.13818
L 137.362487 125.215773
L 62.385719 125.215773
z
" clip-path="url(#p262bbe119d)" style="fill: #72b7b2"/>
   </g>
   <g id="patch_4">
    <path d="M 156.106679 273.13818
L 231.083448 273.13818
L 231.083448 56.746134
L 156.106679 56.746134
z
" clip-path="url(#p262bbe119d)" style="fill: #72b7b2"/>
   </g>
   <g id="patch_5">
    <path d="M 249.82764 273.13818
L 324.804408 273.13818
L 324.804408 56.734041
L 249.82764 56.734041
z
" clip-path="url(#p262bbe119d)" style="fill: #72b7b2"/>
   </g>
   <g id="patch_6">
    <path d="M 343.5486 273.13818
L 418.525368 273.13818
L 418.525368 33.903208
L 343.5486 33.903208
z
" clip-path="url(#p262bbe119d)" style="fill: #72b7b2"/>
   </g>
   <g id="patch_7">
    <path d="M 437.26956 273.13818
L 512.246328 273.13818
L 512.246328 33.898321
L 437.26956 33.898321
z
" clip-path="url(#p262bbe119d)" style="fill: #72b7b2"/>
   </g>
   <g id="patch_8">
    <path d="M 530.99052 273.13818
L 605.967289 273.13818
L 605.967289 79.352707
L 530.99052 79.352707
z
" clip-path="url(#p262bbe119d)" style="fill: #72b7b2"/>
   </g>
   <g id="patch_9">
    <path d="M 35.206641 273.13818
L 35.206641 21.936328
" style="fill: none; stroke: #cccccc; stroke-linejoin: miter; stroke-linecap: square"/>
   </g>
   <g id="patch_10">
    <path d="M 633.146367 273.13818
L 633.146367 21.936328
" style="fill: none; stroke: #cccccc; stroke-linejoin: miter; stroke-linecap: square"/>
   </g>
   <g id="patch_11">
    <path d="M 35.206641 273.13818
L 633.146367 273.13818
" style="fill: none; stroke: #cccccc; stroke-linejoin: miter; stroke-linecap: square"/>
   </g>
   <g id="patch_12">
    <path d="M 35.206641 21.936328
L 633.146367 21.936328
" style="fill: none; stroke: #cccccc; stroke-linejoin: miter; stroke-linecap: square"/>
   </g>
   <g id="text_16">
    <!-- 42.2 -->
    <g style="fill: #262626" transform="translate(91.116681 122.762406) scale(0.09 -0.09)">
     <defs>
      <path id="LiberationSans-11" d="M 584 0
L 584 684
L 1194 684
L 1194 0
L 584 0
z
" transform="scale(0.015625)"/>
     </defs>
     <use xlink:href="#LiberationSans-17"/>
     <use xlink:href="#LiberationSans-15" transform="translate(55.609375 0)"/>
     <use xlink:href="#LiberationSans-11" transform="translate(111.21875 0)"/>
     <use xlink:href="#LiberationSans-15" transform="translate(139 0)"/>
    </g>
   </g>
   <g id="text_17">
    <!-- 61.7 -->
    <g style="fill: #262626" transform="translate(184.837642 54.292767) scale(0.09 -0.09)">
     <use xlink:href="#LiberationSans-19"/>
     <use xlink:href="#LiberationSans-14" transform="translate(55.609375 0)"/>
     <use xlink:href="#LiberationSans-11" transform="translate(111.21875 0)"/>
     <use xlink:href="#LiberationSans-1a" transform="translate(139 0)"/>
    </g>
   </g>
   <g id="text_18">
    <!-- 61.7 -->
    <g style="fill: #262626" transform="translate(278.558602 54.280674) scale(0.09 -0.09)">
     <use xlink:href="#LiberationSans-19"/>
     <use xlink:href="#LiberationSans-14" transform="translate(55.609375 0)"/>
     <use xlink:href="#LiberationSans-11" transform="translate(111.21875 0)"/>
     <use xlink:href="#LiberationSans-1a" transform="translate(139 0)"/>
    </g>
   </g>
   <g id="text_19">
    <!-- 68.3 -->
    <g style="fill: #262626" transform="translate(372.279562 31.44984) scale(0.09 -0.09)">
     <defs>
      <path id="LiberationSans-1b" d="M 3281 1228
Q 3281 619 2893 278
Q 2506 -63 1781 -63
Q 1075 -63 676 271
Q 278 606 278 1222
Q 278 1653 525 1947
Q 772 2241 1156 2303
L 1156 2316
Q 797 2400 589 2681
Q 381 2963 381 3341
Q 381 3844 757 4156
Q 1134 4469 1769 4469
Q 2419 4469 2795 4162
Q 3172 3856 3172 3334
Q 3172 2956 2962 2675
Q 2753 2394 2391 2322
L 2391 2309
Q 2813 2241 3047 1952
Q 3281 1663 3281 1228
z
M 2588 3303
Q 2588 4050 1769 4050
Q 1372 4050 1164 3862
Q 956 3675 956 3303
Q 956 2925 1170 2726
Q 1384 2528 1775 2528
Q 2172 2528 2380 2711
Q 2588 2894 2588 3303
z
M 2697 1281
Q 2697 1691 2453 1898
Q 2209 2106 1769 2106
Q 1341 2106 1100 1882
Q 859 1659 859 1269
Q 859 359 1788 359
Q 2247 359 2472 579
Q 2697 800 2697 1281
z
" transform="scale(0.015625)"/>
     </defs>
     <use xlink:href="#LiberationSans-19"/>
     <use xlink:href="#LiberationSans-1b" transform="translate(55.609375 0)"/>
     <use xlink:href="#LiberationSans-11" transform="translate(111.21875 0)"/>
     <use xlink:href="#LiberationSans-16" transform="translate(139 0)"/>
    </g>
   </g>
   <g id="text_20">
    <!-- 68.3 -->
    <g style="fill: #262626" transform="translate(466.000522 31.444953) scale(0.09 -0.09)">
     <use xlink:href="#LiberationSans-19"/>
     <use xlink:href="#LiberationSans-1b" transform="translate(55.609375 0)"/>
     <use xlink:href="#LiberationSans-11" transform="translate(111.21875 0)"/>
     <use xlink:href="#LiberationSans-16" transform="translate(139 0)"/>
    </g>
   </g>
   <g id="text_21">
    <!-- 55.3 -->
    <g style="fill: #262626" transform="translate(559.721483 76.899339) scale(0.09 -0.09)">
     <use xlink:href="#LiberationSans-18"/>
     <use xlink:href="#LiberationSans-18" transform="translate(55.609375 0)"/>
     <use xlink:href="#LiberationSans-11" transform="translate(111.21875 0)"/>
     <use xlink:href="#LiberationSans-16" transform="translate(139 0)"/>
    </g>
   </g>
   <g id="text_22">
    <!-- Measured Checkpoint Sizes Before Final Cleanup -->
    <g style="fill: #262626" transform="translate(262.139004 15.936328) scale(0.12 -0.12)">
     <defs>
      <path id="LiberationSans-44" d="M 1294 -63
Q 784 -63 528 206
Q 272 475 272 944
Q 272 1469 617 1750
Q 963 2031 1731 2050
L 2491 2063
L 2491 2247
Q 2491 2659 2316 2837
Q 2141 3016 1766 3016
Q 1388 3016 1216 2887
Q 1044 2759 1009 2478
L 422 2531
Q 566 3444 1778 3444
Q 2416 3444 2737 3151
Q 3059 2859 3059 2306
L 3059 850
Q 3059 600 3125 473
Q 3191 347 3375 347
Q 3456 347 3559 369
L 3559 19
Q 3347 -31 3125 -31
Q 2813 -31 2670 133
Q 2528 297 2509 647
L 2491 647
Q 2275 259 1989 98
Q 1703 -63 1294 -63
z
M 1422 359
Q 1731 359 1972 500
Q 2213 641 2352 886
Q 2491 1131 2491 1391
L 2491 1669
L 1875 1656
Q 1478 1650 1273 1575
Q 1069 1500 959 1344
Q 850 1188 850 934
Q 850 659 998 509
Q 1147 359 1422 359
z
" transform="scale(0.015625)"/>
      <path id="LiberationSans-47" d="M 2566 544
Q 2409 219 2151 78
Q 1894 -63 1513 -63
Q 872 -63 570 368
Q 269 800 269 1675
Q 269 3444 1513 3444
Q 1897 3444 2153 3303
Q 2409 3163 2566 2856
L 2572 2856
L 2566 3234
L 2566 4638
L 3128 4638
L 3128 697
Q 3128 169 3147 0
L 2609 0
Q 2600 50 2589 231
Q 2578 413 2578 544
L 2566 544
z
M 859 1694
Q 859 984 1046 678
Q 1234 372 1656 372
Q 2134 372 2350 703
Q 2566 1034 2566 1731
Q 2566 2403 2350 2715
Q 2134 3028 1663 3028
Q 1238 3028 1048 2714
Q 859 2400 859 1694
z
" transform="scale(0.015625)"/>
     </defs>
     <use xlink:href="#LiberationSans-35"/>
     <use xlink:href="#LiberationSans-48" transform="translate(72.21875 0)"/>
     <use xlink:href="#LiberationSans-57" transform="translate(127.828125 0)"/>
     <use xlink:href="#LiberationSans-44" transform="translate(155.609375 0)"/>
     <use xlink:href="#LiberationSans-4c" transform="translate(211.21875 0)"/>
     <use xlink:href="#LiberationSans-51" transform="translate(233.4375 0)"/>
     <use xlink:href="#LiberationSans-48" transform="translate(289.046875 0)"/>
     <use xlink:href="#LiberationSans-47" transform="translate(344.65625 0)"/>
     <use xlink:href="#LiberationSans-3" transform="translate(400.265625 0)"/>
     <use xlink:href="#LiberationSans-26" transform="translate(428.046875 0)"/>
     <use xlink:href="#LiberationSans-4b" transform="translate(500.265625 0)"/>
     <use xlink:href="#LiberationSans-48" transform="translate(555.875 0)"/>
     <use xlink:href="#LiberationSans-46" transform="translate(611.484375 0)"/>
     <use xlink:href="#LiberationSans-4e" transform="translate(661.484375 0)"/>
     <use xlink:href="#LiberationSans-53" transform="translate(711.484375 0)"/>
     <use xlink:href="#LiberationSans-52" transform="translate(767.09375 0)"/>
     <use xlink:href="#LiberationSans-4c" transform="translate(822.703125 0)"/>
     <use xlink:href="#LiberationSans-51" transform="translate(844.921875 0)"/>
     <use xlink:href="#LiberationSans-57" transform="translate(900.53125 0)"/>
     <use xlink:href="#LiberationSans-3" transform="translate(928.3125 0)"/>
     <use xlink:href="#LiberationSans-36" transform="translate(956.09375 0)"/>
     <use xlink:href="#LiberationSans-4c" transform="translate(1022.796875 0)"/>
     <use xlink:href="#LiberationSans-5d" transform="translate(1045.015625 0)"/>
     <use xlink:href="#LiberationSans-48" transform="translate(1095.015625 0)"/>
     <use xlink:href="#LiberationSans-56" transform="translate(1150.625 0)"/>
    </g>
   </g>
  </g>
 </g>
 <defs>
  <clipPath id="p262bbe119d">
   <rect x="35.206641" y="21.936328" width="597.939727" height="251.201851"/>
  </clipPath>
 </defs>
</svg>
